<svg xmlns="http://www.w3.org/2000/svg" xmlns:xlink="http://www.w3.org/1999/xlink" width="27.275" height="26" viewBox="0 0 27.275 26">
  <defs>
    <clipPath id="clip-path">
      <rect id="Rectangle_8" data-name="Rectangle 8" width="27.275" height="26" transform="translate(0 0)" fill="#1d1d1d"/>
    </clipPath>
  </defs>
  <g id="Group_8" data-name="Group 8" transform="translate(0 0)">
    <g id="Group_7" data-name="Group 7" transform="translate(0 0)" clip-path="url(#clip-path)">
      <path id="Path_4" data-name="Path 4" d="M27.244,9.885a.618.618,0,0,0-.5-.422L18.072,8.2,14.194.346a.621.621,0,0,0-1.114,0L9.2,8.2.532,9.463a.621.621,0,0,0-.344,1.059l6.274,6.116L4.981,25.274a.62.62,0,0,0,.9.654l7.756-4.077,7.756,4.077a.628.628,0,0,0,.653-.048.617.617,0,0,0,.247-.607l-1.481-8.636,6.275-6.116a.618.618,0,0,0,.157-.636m-19.5,6.641a.622.622,0,0,0-.178-.549L1.955,10.511,9.7,9.385a.621.621,0,0,0,.467-.34l3.466-7.022L17.1,9.046a.621.621,0,0,0,.467.339l7.749,1.126-5.607,5.466a.621.621,0,0,0-.178.549l1.324,7.718L13.927,20.6a.631.631,0,0,0-.578,0L6.418,24.244Z" transform="translate(0 0)" fill="#1d1d1d"/>
    </g>
  </g>
</svg>
