<svg xmlns="http://www.w3.org/2000/svg" xmlns:xlink="http://www.w3.org/1999/xlink" width="24" height="23.962" viewBox="0 0 24 23.962">
  <defs>
    <clipPath id="clip-path">
      <rect id="Rectangle_27" data-name="Rectangle 27" width="24" height="23.962" transform="translate(0 0)" fill="#1d1d1d"/>
    </clipPath>
  </defs>
  <g id="Group_29" data-name="Group 29" transform="translate(0 0)">
    <g id="Group_28" data-name="Group 28" transform="translate(0 0)" clip-path="url(#clip-path)">
      <path id="Path_30" data-name="Path 30" d="M23.222,0H.778A.779.779,0,0,0,0,.777V9.771a.779.779,0,0,0,.778.778H23.222A.779.779,0,0,0,24,9.771V.777A.779.779,0,0,0,23.222,0m-.778,8.993H1.556V1.555H22.444Z" transform="translate(0 0)" fill="#1d1d1d"/>
      <path id="Path_31" data-name="Path 31" d="M23.222,49.859H.778A.779.779,0,0,0,0,50.637V59.63a.779.779,0,0,0,.778.778H23.222A.779.779,0,0,0,24,59.63V50.637a.779.779,0,0,0-.778-.778m-.778,8.993H1.556V51.415H22.444Z" transform="translate(0 -36.446)" fill="#1d1d1d"/>
    </g>
  </g>
</svg>
