<svg xmlns="http://www.w3.org/2000/svg" xmlns:xlink="http://www.w3.org/1999/xlink" width="24" height="24" viewBox="0 0 24 24">
  <defs>
    <clipPath id="clip-path">
      <rect id="Rectangle_26" data-name="Rectangle 26" width="24" height="24" fill="#1d1d1d"/>
    </clipPath>
  </defs>
  <g id="Group_27" data-name="Group 27" transform="translate(0 0)">
    <g id="Group_26" data-name="Group 26" transform="translate(0 0)" clip-path="url(#clip-path)">
      <path id="Path_26" data-name="Path 26" d="M59.645,49.859H50.638a.78.78,0,0,0-.779.779v9.007a.78.78,0,0,0,.779.779h9.007a.78.78,0,0,0,.779-.779V50.638a.78.78,0,0,0-.779-.779m-.779,9.007H51.417V51.417h7.449Z" transform="translate(-36.424 -36.424)" fill="#1d1d1d"/>
      <path id="Path_27" data-name="Path 27" d="M59.645,0H50.638a.78.78,0,0,0-.779.779V9.786a.78.78,0,0,0,.779.779h9.007a.78.78,0,0,0,.779-.779V.779A.78.78,0,0,0,59.645,0m-.779,9.007H51.417V1.558h7.449Z" transform="translate(-36.424 0)" fill="#1d1d1d"/>
      <path id="Path_28" data-name="Path 28" d="M9.786,0H.779A.78.78,0,0,0,0,.779V9.786a.78.78,0,0,0,.779.779H9.786a.78.78,0,0,0,.779-.779V.779A.78.78,0,0,0,9.786,0M9.007,9.007H1.558V1.558H9.007Z" transform="translate(0 0)" fill="#1d1d1d"/>
      <path id="Path_29" data-name="Path 29" d="M9.786,49.859H.779A.78.78,0,0,0,0,50.638v9.007a.78.78,0,0,0,.779.779H9.786a.78.78,0,0,0,.779-.779V50.638a.78.78,0,0,0-.779-.779m-.779,9.007H1.558V51.417H9.007Z" transform="translate(0 -36.424)" fill="#1d1d1d"/>
    </g>
  </g>
</svg>
